HIERARCHY
ROOT Pelvis
{
	OFFSET 0.000000 0.941512 0.000000
	CHANNELS 6 Xposition Yposition Zposition Zrotation Yrotation Xrotation 
	JOINT Pelvis_L_Hip
	{
		OFFSET 0.000000 0.000000 0.000000
		CHANNELS 3 Zrotation Yrotation Xrotation
		JOINT L_Hip
		{
			OFFSET 0.062321 -0.080322 -0.016990
			CHANNELS 3 Zrotation Yrotation Xrotation
			JOINT L_Knee
			{
				OFFSET 0.093051 -0.381305 -0.029784
				CHANNELS 3 Zrotation Yrotation Xrotation
				JOINT L_Ankle
				{
					OFFSET -0.010371 -0.431000 -0.033614
					CHANNELS 3 Zrotation Yrotation Xrotation
					End Site #name: L_Foot
					{
						OFFSET 0.069299 -0.038670 0.119418
					}
				}
			}
		}
	}
	JOINT Pelvis_R_Hip
	{
		OFFSET 0.000000 0.000000 0.000000
		CHANNELS 3 Zrotation Yrotation Xrotation
		JOINT R_Hip
		{
			OFFSET -0.055334 -0.094904 -0.002373
			CHANNELS 3 Zrotation Yrotation Xrotation
			JOINT R_Knee
			{
				OFFSET -0.064207 -0.384370 -0.019592
				CHANNELS 3 Zrotation Yrotation Xrotation
				JOINT R_Ankle
				{
					OFFSET 0.025418 -0.419734 -0.065953
					CHANNELS 3 Zrotation Yrotation Xrotation
					End Site #name: R_Foot
					{
						OFFSET -0.057233 -0.039888 0.132134
					}
				}
			}
		}
	}
	JOINT Pelvis_Spine1
	{
		OFFSET 0.000000 0.000000 0.000000
		CHANNELS 3 Zrotation Yrotation Xrotation
		JOINT Spine1
		{
			OFFSET -0.005562 0.124093 -0.043360
			CHANNELS 3 Zrotation Yrotation Xrotation
			JOINT Spine2
			{
				OFFSET 0.012244 0.139499 0.029894
				CHANNELS 3 Zrotation Yrotation Xrotation
				JOINT Spine3
				{
					OFFSET -0.002556 0.056561 0.009225
					CHANNELS 3 Zrotation Yrotation Xrotation
					JOINT Spine3_Neck
					{
						OFFSET 0.000000 0.000000 0.000000
						CHANNELS 3 Zrotation Yrotation Xrotation
						JOINT Neck
						{
							OFFSET -0.005205 0.217920 -0.024551
							CHANNELS 3 Zrotation Yrotation Xrotation
							End Site #name: Head
							{
								OFFSET 0.002365 0.091850 0.046637
							}
						}
					}
					JOINT Spine3_L_Collar
					{
						OFFSET 0.000000 0.000000 0.000000
						CHANNELS 3 Zrotation Yrotation Xrotation
						JOINT L_Collar
						{
							OFFSET 0.072225 0.116603 -0.009480
							CHANNELS 3 Zrotation Yrotation Xrotation
							JOINT L_Shoulder
							{
								OFFSET 0.115937 -0.058643 -0.021018
								CHANNELS 3 Zrotation Yrotation Xrotation
								JOINT L_Elbow
								{
									OFFSET 0.021994 -0.254722 -0.024492
									CHANNELS 3 Zrotation Yrotation Xrotation
									End Site #name: L_Wrist
									{
										OFFSET 0.048810 -0.240214 0.103329
									}
								}
							}
						}
					}
					JOINT Spine3_R_Collar
					{
						OFFSET 0.000000 0.000000 0.000000
						CHANNELS 3 Zrotation Yrotation Xrotation
						JOINT R_Collar
						{
							OFFSET -0.073372 0.120704 -0.024611
							CHANNELS 3 Zrotation Yrotation Xrotation
							JOINT R_Shoulder
							{
								OFFSET -0.108089 -0.054969 -0.020504
								CHANNELS 3 Zrotation Yrotation Xrotation
								JOINT R_Elbow
								{
									OFFSET -0.033684 -0.260739 0.009889
									CHANNELS 3 Zrotation Yrotation Xrotation
									End Site #name: R_Wrist
									{
										OFFSET -0.067980 -0.232763 0.118463
									}
								}
							}
						}
					}
				}
			}
		}
	}
}
MOTION
Frames: 13
Frame Time: 0.041667
0.002521 0.950351 0.004134 -2.788156 -3.232370 4.364921 0.000000 0.000000 0.000000 -2.060709 -1.009530 -4.512224 4.783200 -0.450977 0.944584 -4.937879 -10.913556 2.517907 0.000000 0.000000 0.000000 2.439426 0.153019 -1.607048 -3.342905 0.135946 -4.216669 3.251484 5.541002 3.225543 0.000000 0.000000 0.000000 5.066644 -0.605135 -4.016616 -1.903418 0.086986 -3.672118 3.663068 4.070101 3.771616 0.000000 0.000000 0.000000 -7.495255 3.875443 0.453172 0.000000 0.000000 0.000000 29.745756 1.634337 7.986573 -5.981827 -1.152658 -12.837364 45.021213 32.982380 -45.137415 0.000000 0.000000 0.000000 -34.007883 13.092620 -5.218461 16.978914 0.551999 0.076943 -14.793811 23.811347 -93.475026 
0.002508 0.950758 0.003934 -2.779086 -3.200555 4.241399 0.000000 0.000000 0.000000 -2.143568 -1.033948 -4.617633 4.933107 -0.492304 1.368711 -4.913348 -11.051410 2.411417 0.000000 0.000000 0.000000 2.546723 0.156863 -1.650272 -3.497633 0.179333 -3.940363 3.113347 5.508254 2.971389 0.000000 0.000000 0.000000 4.817469 -0.580183 -3.842006 -1.501379 0.042362 -3.537591 3.495188 4.156804 3.491882 0.000000 0.000000 0.000000 -7.244723 3.730198 0.248659 0.000000 0.000000 0.000000 29.845995 1.465758 7.899446 -6.301133 -1.134895 -12.663692 45.145249 33.227901 -45.486274 0.000000 0.000000 0.000000 -34.068815 13.039520 -5.188958 19.465418 1.688257 -3.318479 -21.097600 12.175710 -104.942410 
0.002130 0.951010 0.003587 -2.792365 -3.041055 4.107182 0.000000 0.000000 0.000000 -2.160903 -1.029992 -4.605706 5.069566 -0.514792 1.525125 -4.977999 -11.294832 2.390818 0.000000 0.000000 0.000000 2.660391 0.142825 -1.598357 -3.565233 0.204001 -3.766374 2.957650 5.359341 2.758727 0.000000 0.000000 0.000000 4.490711 -0.527218 -3.761048 -1.077212 -0.002987 -3.341869 3.438869 4.185296 3.239890 0.000000 0.000000 0.000000 -7.175424 3.682407 0.101645 0.000000 0.000000 0.000000 29.886493 1.246445 7.757680 -6.549031 -1.119854 -12.522625 45.187614 33.333156 -45.691574 0.000000 0.000000 0.000000 -33.654855 12.994484 -5.202544 21.727199 2.794130 -6.177944 -23.841035 2.699842 -110.318332 
0.001640 0.951088 0.003160 -2.793284 -2.909829 3.972288 0.000000 0.000000 0.000000 -2.152016 -1.006627 -4.514463 5.141509 -0.521392 1.531315 -5.048253 -11.477667 2.409201 0.000000 0.000000 0.000000 2.708627 0.119378 -1.482513 -3.550893 0.207868 -3.709376 2.868269 5.251707 2.650986 0.000000 0.000000 0.000000 4.260705 -0.481014 -3.770087 -0.834074 -0.024968 -3.135483 3.542225 4.198326 3.114465 0.000000 0.000000 0.000000 -7.412102 3.798270 0.050686 0.000000 0.000000 0.000000 29.759083 1.149206 7.662613 -6.583479 -1.123964 -12.540212 45.071357 33.190645 -45.611333 0.000000 0.000000 0.000000 -32.973750 12.898760 -5.169357 23.113579 3.108306 -6.690284 -24.316413 0.921855 -111.655408 
0.001245 0.951162 0.002486 -2.779508 -2.883274 3.831714 0.000000 0.000000 0.000000 -2.133911 -0.972874 -4.379218 5.121859 -0.516397 1.490345 -5.067446 -11.499315 2.427384 0.000000 0.000000 0.000000 2.711811 0.095168 -1.353510 -3.520755 0.203468 -3.718939 2.874858 5.229306 2.679653 0.000000 0.000000 0.000000 4.284522 -0.487562 -3.744578 -0.964342 -0.004941 -3.083717 3.699342 4.222452 3.197517 0.000000 0.000000 0.000000 -7.755052 3.972346 0.011650 0.000000 0.000000 0.000000 29.628413 1.220369 7.694461 -6.411244 -1.139452 -12.669012 44.732134 32.832949 -45.504084 0.000000 0.000000 0.000000 -32.457885 13.044797 -5.350338 23.624859 2.275647 -4.164123 -22.665762 8.585520 -109.042557 
0.000784 0.951260 0.001437 -2.780414 -2.954630 3.721990 0.000000 0.000000 0.000000 -2.066252 -0.960880 -4.319111 5.025756 -0.510253 1.527836 -5.022900 -11.358362 2.426839 0.000000 0.000000 0.000000 2.710838 0.081898 -1.282576 -3.472277 0.194376 -3.749914 2.959590 5.276267 2.818179 0.000000 0.000000 0.000000 4.481246 -0.544986 -3.579606 -1.392586 0.037247 -3.364509 3.832024 4.223927 3.405202 0.000000 0.000000 0.000000 -7.940417 4.074593 0.078876 0.000000 0.000000 0.000000 29.635285 1.445693 7.877650 -6.132401 -1.147719 -12.766625 44.211354 32.398806 -45.619882 0.000000 0.000000 0.000000 -32.244829 13.267316 -5.568349 23.379799 1.075457 -0.766788 -17.535424 21.142056 -99.372998 
0.000211 0.951227 0.000191 -2.803697 -3.112590 3.707539 0.000000 0.000000 0.000000 -1.937751 -0.976941 -4.357036 4.845657 -0.499020 1.601475 -4.874307 -11.042525 2.350542 0.000000 0.000000 0.000000 2.701818 0.083664 -1.291141 -3.385853 0.178238 -3.805782 3.127750 5.411302 3.064739 0.000000 0.000000 0.000000 4.658589 -0.573474 -3.624753 -1.779835 0.065485 -3.763479 3.798850 4.177703 3.755923 0.000000 0.000000 0.000000 -7.908036 4.080915 0.357481 0.000000 0.000000 0.000000 29.858539 1.691428 8.118346 -6.019445 -1.173468 -12.992066 43.782087 32.036438 -45.698230 0.000000 0.000000 0.000000 -32.003008 13.799652 -6.070472 22.645226 0.480964 0.856225 -7.251071 30.375978 -80.356791 
-0.000471 0.951036 -0.001519 -2.851017 -3.260109 3.735027 0.000000 0.000000 0.000000 -1.754257 -1.006634 -4.441891 4.610052 -0.479947 1.641812 -4.683673 -10.734485 2.203742 0.000000 0.000000 0.000000 2.687471 0.077616 -1.258804 -3.251101 0.147758 -3.959012 3.295065 5.528949 3.319095 0.000000 0.000000 0.000000 4.703645 -0.541994 -3.942594 -2.023679 0.078297 -4.077907 3.804545 4.156390 4.175782 0.000000 0.000000 0.000000 -7.790548 4.043102 0.624778 0.000000 0.000000 0.000000 30.237768 1.783547 8.277161 -6.292399 -1.253923 -13.581462 43.579470 31.799007 -45.539681 0.000000 0.000000 0.000000 -31.365926 15.261650 -7.498279 21.354356 0.546681 0.496130 5.860885 31.620732 -55.019912 
-0.001346 0.950575 -0.003223 -2.918407 -3.315961 3.739801 0.000000 0.000000 0.000000 -1.557353 -1.035955 -4.524683 4.434720 -0.463179 1.635190 -4.602541 -10.625905 2.129935 0.000000 0.000000 0.000000 2.742690 0.054733 -1.154534 -3.163479 0.116408 -4.194257 3.407235 5.551934 3.525502 0.000000 0.000000 0.000000 4.573583 -0.469821 -4.320459 -2.304973 0.106763 -4.192300 4.215361 4.367684 4.489708 0.000000 0.000000 0.000000 -7.655079 3.975998 0.630522 0.000000 0.000000 0.000000 30.596012 1.752864 8.382302 -6.715698 -1.407410 -14.643251 43.044619 31.318698 -45.563377 0.000000 0.000000 0.000000 -30.925358 17.507368 -9.732880 20.404823 0.810816 -0.459829 14.689605 25.285797 -31.492688 
-0.001739 0.950203 -0.004042 -2.941537 -3.106839 3.705848 0.000000 0.000000 0.000000 -1.461844 -1.052471 -4.578136 4.363018 -0.452482 1.586438 -4.686893 -10.818161 2.164456 0.000000 0.000000 0.000000 2.769407 0.022002 -0.987360 -3.108176 0.093567 -4.389526 3.389389 5.350909 3.626865 0.000000 0.000000 0.000000 4.326277 -0.388257 -4.598170 -2.398649 0.136786 -3.896632 4.684141 4.712780 4.578642 0.000000 0.000000 0.000000 -7.626725 3.941734 0.336381 0.000000 0.000000 0.000000 30.753841 1.663075 8.453909 -6.895258 -1.550612 -15.632717 42.212640 30.701835 -46.013424 0.000000 0.000000 0.000000 -30.833677 18.744122 -11.044353 19.881208 0.628279 0.058719 15.969342 19.807845 -20.973002 
-0.001131 0.950365 -0.003942 -2.835246 -2.577796 3.648086 0.000000 0.000000 0.000000 -1.583304 -1.060297 -4.632508 4.383308 -0.448536 1.520152 -4.904919 -11.286540 2.267696 0.000000 0.000000 0.000000 2.666255 0.005470 -0.865003 -3.085915 0.092541 -4.390519 3.189925 4.851642 3.570128 0.000000 0.000000 0.000000 4.346011 -0.402564 -4.486980 -2.402604 0.134806 -3.925110 4.505763 4.692122 4.496087 0.000000 0.000000 0.000000 -7.574445 3.908864 0.317199 0.000000 0.000000 0.000000 30.557209 1.541573 8.381172 -6.210954 -1.478512 -15.288312 41.783327 30.494512 -46.531004 0.000000 0.000000 0.000000 -30.831318 17.549658 -9.948066 19.145072 0.119916 1.666535 15.207411 20.880734 -23.837643 
0.000076 0.950597 -0.003202 -2.677865 -2.163361 3.563252 0.000000 0.000000 0.000000 -1.782265 -1.024813 -4.528337 4.391613 -0.436794 1.345513 -5.115066 -11.679518 2.396245 0.000000 0.000000 0.000000 2.496489 0.002351 -0.795233 -3.122475 0.108569 -4.270887 2.999538 4.464782 3.452544 0.000000 0.000000 0.000000 4.623506 -0.480037 -4.253963 -2.393064 0.113925 -4.224643 4.040090 4.327276 4.410527 0.000000 0.000000 0.000000 -7.638010 3.958036 0.651915 0.000000 0.000000 0.000000 30.204453 1.558302 8.292626 -5.436105 -1.279337 -13.945430 41.700989 30.528309 -46.815473 0.000000 0.000000 0.000000 -30.897638 15.516709 -7.964372 17.591970 -0.249855 2.864152 13.751464 25.672742 -33.528706 
0.001240 0.950547 -0.002158 -2.635419 -2.243470 3.454852 0.000000 0.000000 0.000000 -1.927457 -0.940525 -4.222688 4.468610 -0.428761 1.103743 -5.185163 -11.688364 2.501689 0.000000 0.000000 0.000000 2.382379 0.001488 -0.757865 -3.151392 0.122139 -4.151722 2.986488 4.582754 3.345393 0.000000 0.000000 0.000000 4.978172 -0.549102 -4.219265 -2.272853 0.104397 -4.138508 3.775482 4.115544 4.299809 0.000000 0.000000 0.000000 -7.949276 4.136900 0.940281 0.000000 0.000000 0.000000 29.833459 1.754179 8.299580 -5.328833 -1.142992 -12.892558 41.771924 30.577009 -46.787166 0.000000 0.000000 0.000000 -31.453139 13.962724 -6.391504 16.260916 -0.471770 3.652411 8.949322 30.459097 -48.153145 
